<svg width="228" height="221" viewBox="0 0 228 221" fill="none" xmlns="http://www.w3.org/2000/svg">
<g clip-path="url(#clip0)">
<g opacity="0.3">
<g opacity="0.3">
<g opacity="0.3">
<path opacity="0.3" d="M5.4626 148.699H1.74338C0.790333 148.699 0 147.909 0 146.956C0 146.002 0.790333 145.212 1.74338 145.212H5.4626C6.41564 145.212 7.20598 146.002 7.20598 146.956C7.20598 147.909 6.41564 148.699 5.4626 148.699Z" fill="#FC153B"/>
<path opacity="0.3" d="M19.8745 148.699H15.6904C14.7374 148.699 13.947 147.909 13.947 146.956C13.947 146.002 14.7374 145.212 15.6904 145.212H19.8745C20.8276 145.212 21.6179 146.002 21.6179 146.956C21.6179 147.909 20.8276 148.699 19.8745 148.699Z" fill="#FC153B"/>
</g>
<g opacity="0.3">
<path opacity="0.3" d="M10.6927 157.881C9.73967 157.881 8.94934 157.09 8.94934 156.137V152.418C8.94934 151.465 9.73967 150.675 10.6927 150.675C11.6458 150.675 12.4361 151.465 12.4361 152.418V156.137C12.4361 157.09 11.6458 157.881 10.6927 157.881Z" fill="#FC153B"/>
<path opacity="0.3" d="M10.6927 143.934C9.73967 143.934 8.94934 143.143 8.94934 142.19V138.006C8.94934 137.053 9.73967 136.263 10.6927 136.263C11.6458 136.263 12.4361 137.053 12.4361 138.006V142.19C12.4361 143.143 11.6458 143.934 10.6927 143.934Z" fill="#FC153B"/>
</g>
</g>
<g opacity="0.3">
<g opacity="0.3">
<path opacity="0.3" d="M152.604 168.69H148.885C147.932 168.69 147.141 167.899 147.141 166.946C147.141 165.993 147.932 165.203 148.885 165.203H152.604C153.557 165.203 154.347 165.993 154.347 166.946C154.347 167.899 153.557 168.69 152.604 168.69Z" fill="#FC153B"/>
<path opacity="0.3" d="M167.016 168.69H162.832C161.879 168.69 161.088 167.899 161.088 166.946C161.088 165.993 161.879 165.203 162.832 165.203H167.016C167.969 165.203 168.759 165.993 168.759 166.946C168.759 167.899 167.969 168.69 167.016 168.69Z" fill="#FC153B"/>
</g>
<g opacity="0.3">
<path opacity="0.3" d="M157.834 177.872C156.881 177.872 156.091 177.081 156.091 176.128V172.409C156.091 171.456 156.881 170.666 157.834 170.666C158.787 170.666 159.577 171.456 159.577 172.409V176.128C159.577 177.081 158.787 177.872 157.834 177.872Z" fill="#FC153B"/>
<path opacity="0.3" d="M157.834 163.924C156.881 163.924 156.091 163.134 156.091 162.181V157.997C156.091 157.044 156.881 156.254 157.834 156.254C158.787 156.254 159.577 157.044 159.577 157.997V162.181C159.577 163.134 158.787 163.924 157.834 163.924Z" fill="#FC153B"/>
</g>
</g>
<g opacity="0.3">
<g opacity="0.3">
<path opacity="0.3" d="M206.997 31.0787H203.278C202.325 31.0787 201.535 30.2884 201.535 29.3353C201.535 28.3823 202.325 27.5919 203.278 27.5919H206.997C207.951 27.5919 208.741 28.3823 208.741 29.3353C208.741 30.2884 207.951 31.0787 206.997 31.0787Z" fill="#FC153B"/>
<path opacity="0.3" d="M221.409 31.0787H217.225C216.272 31.0787 215.482 30.2884 215.482 29.3353C215.482 28.3823 216.272 27.5919 217.225 27.5919H221.409C222.363 27.5919 223.153 28.3823 223.153 29.3353C223.153 30.2884 222.363 31.0787 221.409 31.0787Z" fill="#FC153B"/>
</g>
<g opacity="0.3">
<path opacity="0.3" d="M212.228 40.2605C211.275 40.2605 210.484 39.4702 210.484 38.5172V34.7979C210.484 33.8449 211.275 33.0546 212.228 33.0546C213.181 33.0546 213.971 33.8449 213.971 34.7979V38.5172C213.971 39.4702 213.181 40.2605 212.228 40.2605Z" fill="#FC153B"/>
<path opacity="0.3" d="M212.228 26.3135C211.275 26.3135 210.484 25.5231 210.484 24.5701V20.386C210.484 19.4329 211.275 18.6426 212.228 18.6426C213.181 18.6426 213.971 19.4329 213.971 20.386V24.5701C213.971 25.5231 213.181 26.3135 212.228 26.3135Z" fill="#FC153B"/>
</g>
</g>
<path opacity="0.3" d="M31.2881 188.913C28.1732 188.913 25.6395 186.379 25.6395 183.264C25.6395 180.149 28.1732 177.616 31.2881 177.616C34.4029 177.616 36.9366 180.149 36.9366 183.264C36.9366 186.379 34.4029 188.913 31.2881 188.913ZM31.2881 181.103C30.1026 181.103 29.1263 182.079 29.1263 183.264C29.1263 184.45 30.1026 185.426 31.2881 185.426C32.4736 185.426 33.4499 184.45 33.4499 183.264C33.4499 182.056 32.4736 181.103 31.2881 181.103Z" fill="#FC153B"/>
<path opacity="0.3" d="M217.225 79.568C214.11 79.568 211.577 77.0343 211.577 73.9194C211.577 70.8046 214.11 68.2709 217.225 68.2709C220.34 68.2709 222.874 70.8046 222.874 73.9194C222.874 77.0343 220.34 79.568 217.225 79.568ZM217.225 71.7577C216.04 71.7577 215.063 72.7339 215.063 73.9194C215.063 75.1049 216.04 76.0812 217.225 76.0812C218.411 76.0812 219.387 75.1049 219.387 73.9194C219.387 72.7339 218.411 71.7577 217.225 71.7577Z" fill="#FC153B"/>
</g>
<g opacity="0.3">
<path opacity="0.3" d="M180.893 24.2214C180.545 24.2214 180.173 24.1052 179.871 23.896C176.523 21.4552 173.013 19.2005 169.41 17.1781C168.573 16.7132 168.271 15.644 168.736 14.8071C169.201 13.9703 170.27 13.6681 171.107 14.133C174.826 16.2251 178.453 18.5496 181.893 21.0833C182.66 21.6412 182.846 22.7337 182.265 23.524C181.963 23.9657 181.428 24.2214 180.893 24.2214Z" fill="#FC153B"/>
<path opacity="0.3" d="M84.8443 8.36823C84.1005 8.36823 83.4031 7.88009 83.1706 7.13624C82.8917 6.20644 83.4031 5.23015 84.3097 4.95121C94.9094 1.67365 105.928 0 117.108 0C125.849 0 134.542 1.02278 142.957 3.04511C143.887 3.27756 144.468 4.20736 144.235 5.13717C144.003 6.06697 143.073 6.6481 142.143 6.41565C133.984 4.4863 125.57 3.48676 117.108 3.48676C106.276 3.48676 95.6068 5.09068 85.3789 8.27525C85.193 8.34499 85.007 8.36823 84.8443 8.36823Z" fill="#FC153B"/>
<path opacity="0.3" d="M42.6546 33.0778C42.1897 33.0778 41.7248 32.8918 41.3761 32.5199C40.7252 31.8225 40.7485 30.7068 41.4458 30.0559C43.166 28.4288 44.9791 26.8248 46.7922 25.3139C47.536 24.7095 48.6286 24.8025 49.2562 25.5464C49.8605 26.2902 49.7676 27.3827 49.0237 28.0103C47.2571 29.4748 45.5137 31.009 43.8401 32.5896C43.5146 32.9151 43.073 33.0778 42.6546 33.0778Z" fill="#FC153B"/>
<path opacity="0.3" d="M9.50714 125.756C8.64707 125.756 7.87998 125.105 7.787 124.222C7.20587 119.596 6.90369 114.901 6.90369 110.205C6.90369 105.533 7.20587 100.86 7.787 96.258C9.57687 81.9855 14.0864 68.4103 21.1994 55.9277C21.6643 55.0909 22.7336 54.7887 23.5704 55.2768C24.4072 55.7417 24.7094 56.811 24.2213 57.6478C17.364 69.7585 12.9939 82.892 11.2505 96.6996C10.6926 101.139 10.4137 105.695 10.4137 110.205C10.4137 114.738 10.6926 119.317 11.2738 123.78C11.39 124.733 10.7159 125.617 9.76283 125.733C9.64661 125.733 9.57687 125.756 9.50714 125.756Z" fill="#FC153B"/>
<path opacity="0.3" d="M62.9243 205.952C62.6221 205.952 62.3199 205.882 62.0642 205.719C57.8336 203.278 53.7192 200.535 49.8605 197.537C49.0934 196.956 48.954 195.863 49.5351 195.096C50.1162 194.329 51.2087 194.19 51.9758 194.771C55.7183 197.653 59.6932 200.326 63.8076 202.697C64.6444 203.185 64.9233 204.255 64.4352 205.068C64.1098 205.626 63.5286 205.952 62.9243 205.952Z" fill="#FC153B"/>
<path opacity="0.3" d="M117.109 220.41C107.276 220.41 97.5364 219.108 88.1454 216.575C87.2156 216.319 86.6577 215.366 86.9134 214.436C87.1691 213.506 88.1222 212.948 89.052 213.204C98.1408 215.668 107.578 216.923 117.109 216.923C124.803 216.923 132.497 216.11 139.935 214.483C140.865 214.273 141.795 214.878 142.004 215.807C142.213 216.737 141.609 217.667 140.679 217.876C132.985 219.573 125.059 220.41 117.109 220.41Z" fill="#FC153B"/>
<path opacity="0.3" d="M170.27 206.509C169.666 206.509 169.061 206.184 168.759 205.626C168.294 204.789 168.573 203.72 169.433 203.255C172.037 201.791 174.617 200.187 177.081 198.513C177.871 197.978 178.964 198.188 179.499 198.978C180.033 199.768 179.824 200.861 179.034 201.396C176.477 203.139 173.827 204.789 171.13 206.3C170.851 206.44 170.572 206.509 170.27 206.509Z" fill="#FC153B"/>
<path opacity="0.3" d="M197.583 184.682C197.165 184.682 196.746 184.543 196.421 184.241C195.7 183.59 195.654 182.497 196.305 181.777C208.206 168.62 216.691 152.581 220.852 135.426C221.084 134.496 222.014 133.915 222.967 134.147C223.897 134.38 224.478 135.31 224.245 136.263C219.945 153.975 211.182 170.526 198.908 184.124C198.536 184.473 198.048 184.682 197.583 184.682Z" fill="#FC153B"/>
<path opacity="0.3" d="M225.57 111.948C224.617 111.948 223.827 111.158 223.827 110.205C223.827 106.997 223.687 103.766 223.408 100.582C223.176 97.9781 222.85 95.3514 222.432 92.7944C222.269 91.8414 222.92 90.9581 223.873 90.7953C224.826 90.6326 225.71 91.2835 225.872 92.2365C226.314 94.8865 226.663 97.6062 226.895 100.279C227.197 103.557 227.337 106.904 227.337 110.228C227.313 111.181 226.523 111.948 225.57 111.948Z" fill="#FC153B"/>
</g>
<path d="M140.607 108.143C140.607 126.893 116.5 142.964 116.5 142.964C116.5 142.964 92.3928 126.893 92.3928 108.143C92.3928 101.749 94.9327 95.6175 99.4536 91.0965C103.975 86.5756 110.106 84.0357 116.5 84.0357C122.894 84.0357 129.025 86.5756 133.546 91.0965C138.067 95.6175 140.607 101.749 140.607 108.143Z" stroke="#FC153B" stroke-width="4" stroke-linecap="round" stroke-linejoin="round"/>
<path d="M116.5 116.179C120.938 116.179 124.536 112.581 124.536 108.143C124.536 103.705 120.938 100.107 116.5 100.107C112.062 100.107 108.464 103.705 108.464 108.143C108.464 112.581 112.062 116.179 116.5 116.179Z" stroke="#FC153B" stroke-width="4" stroke-linecap="round" stroke-linejoin="round"/>
</g>
<defs>
<clipPath id="clip0">
<rect width="227.314" height="220.41" fill="white"/>
</clipPath>
</defs>
</svg>
