<svg width="16" height="18" viewBox="0 0 16 18" fill="none" xmlns="http://www.w3.org/2000/svg">
<path d="M0.928467 4.28574H2.4999M2.4999 4.28574H15.0713M2.4999 4.28574V15.2857C2.4999 15.7025 2.66546 16.1022 2.96016 16.3969C3.25486 16.6916 3.65455 16.8572 4.07132 16.8572H11.9285C12.3452 16.8572 12.7449 16.6916 13.0396 16.3969C13.3343 16.1022 13.4999 15.7025 13.4999 15.2857V4.28574H2.4999ZM4.85704 4.28574V2.71431C4.85704 2.29754 5.0226 1.89784 5.3173 1.60314C5.612 1.30844 6.0117 1.14288 6.42847 1.14288H9.57132C9.98809 1.14288 10.3878 1.30844 10.6825 1.60314C10.9772 1.89784 11.1428 2.29754 11.1428 2.71431V4.28574M6.42847 8.21431V12.9286M9.57132 8.21431V12.9286" stroke="#FC153B" stroke-linecap="round" stroke-linejoin="round"/>
</svg>
