<svg width="111" height="115" viewBox="0 0 111 115" fill="none" xmlns="http://www.w3.org/2000/svg">
<path d="M116.5 84.5C116.5 84.5 96.7349 67.6084 88.5051 59.6043C79.2518 50.5873 70.0313 56.3354 64.1115 60.2356C64.1115 60.2356 54.9466 61.7777 47.6396 62.202C41.1656 62.5752 40.9527 66.2819 41.0573 67.2767C41.5516 72.3265 59.6462 73.2849 77.8051 72.1626L111.5 114.5L116.5 84.5Z" fill="#D88A32"/>
<path d="M77.8206 72.161C74.5181 71.7969 71.3218 70.7851 68.4164 69.184C68.4164 69.184 42.7318 74.6308 41.0729 67.275L19.7101 69.5211C19.7101 69.5211 13.0717 69.7761 12.7805 71.9902C12.4893 74.2043 19.7208 75.6535 39.5887 74.5391C59.4566 73.4247 77.8206 72.161 77.8206 72.161Z" fill="#D2781D"/>
<path d="M41.809 18.3408C40.6846 17.1165 39.5217 15.8555 38.7491 14.385C37.9732 12.9001 37.6144 11.1239 38.1591 9.53489C38.6894 7.94914 40.2708 6.66801 41.9361 6.81775C43.9899 7.01506 45.3442 9.18397 45.5255 11.2422C45.7212 13.2971 45.0957 15.3274 44.8951 17.3668C44.8202 18.0333 44.8674 18.8382 45.4237 19.2252C46.0152 19.6343 46.8298 19.2979 47.4061 18.91C49.1175 17.7352 50.309 15.8027 52.2202 14.9752C52.9199 14.665 53.8155 14.5518 54.4122 15.0504C54.6819 15.3062 54.8785 15.6391 54.9746 15.9948C55.2862 16.9661 55.3249 17.9995 55.079 18.9767C54.8364 19.9684 54.3314 20.8687 53.6018 21.5785C52.5843 22.5501 51.2181 23.1177 50.2392 24.1258C50.0199 24.357 49.8137 24.6456 49.8392 24.9569C49.8648 25.2683 50.1344 25.5241 50.3988 25.6905C51.2404 26.2694 52.2484 26.5838 53.0756 27.1659C53.9061 27.7623 54.5663 28.8053 54.2421 29.7702C53.9212 30.7495 52.7475 31.1675 51.7331 31.1567C50.7076 31.1635 49.6885 30.8667 48.6649 30.9485C47.659 31.0415 46.5442 31.718 46.5046 32.739C46.4416 33.8559 47.6612 34.6357 48.7579 34.8091C49.8579 34.9968 51.044 34.8327 52.0749 35.2476C52.6559 35.4779 53.158 35.8923 53.5184 36.4145C53.8789 36.9366 54.0658 37.5587 54.0594 38.1945C54.053 38.8303 53.8612 39.4479 53.5108 39.9657C53.1604 40.4834 52.6513 40.9013 52.0678 41.1247C51.2101 41.4709 50.2466 41.4182 49.3228 41.3414C44.4869 40.9313 39.7089 39.9794 35.0992 38.5058C34.464 38.303 33.8078 38.0746 33.2737 37.6524C31.7772 36.4523 31.7963 34.2126 31.9513 32.3044C32.0281 31.3807 32.1825 30.3336 32.9468 29.8425C33.9865 29.1679 35.3099 29.9392 36.528 30.1152C37.0268 30.1829 37.549 30.1548 38.0451 30.0117C38.5412 29.8686 39.0001 29.6283 39.3962 29.3116C39.872 28.9465 40.1937 28.4353 40.3313 27.8452C40.54 26.7706 39.8334 25.7231 38.9579 25.0613C38.0823 24.3996 37.0404 24.0023 36.1537 23.3582C35.0875 22.5888 34.2412 21.3918 34.1978 20.0725C34.1544 18.7533 35.1268 17.3841 36.4408 17.2513C38.3312 17.0628 39.7816 19.2552 41.6858 19.26C42.3346 18.9916 41.809 18.3408 41.809 18.3408Z" fill="#4C7378"/>
<path d="M53.9718 10.3928C53.7913 9.1349 53.0857 6.36528 51.2677 6.67318C49.3316 6.99285 50.5484 9.75192 50.999 10.7369C51.6241 12.09 52.4358 13.4006 52.8918 14.8072C52.7699 15.3334 52.7008 15.8929 52.6892 16.4393C52.7022 16.4967 52.7186 16.5685 52.746 16.6227C52.7734 16.6769 52.8296 16.7245 52.8825 16.7578C52.9354 16.791 52.9993 16.8067 53.06 16.808C53.1207 16.8093 53.1782 16.7962 53.25 16.7799C53.2585 16.8837 53.2494 16.9764 53.2468 17.0978C53.2325 17.4333 53.7195 17.383 53.7403 17.0761C53.7794 16.5839 53.7753 16.1015 53.7073 15.6034C53.8364 14.9095 53.9224 14.2254 53.9731 13.519C54.1132 12.4752 54.1032 11.4353 53.9718 10.3928Z" fill="#66A896"/>
<path d="M60.73 9.62548C59.6232 8.41221 57.8093 9.2025 56.6854 9.97176C55.5614 10.741 54.3775 11.9771 54.2441 13.3819C53.9752 13.9264 53.8377 14.5165 53.8424 15.1347C53.851 15.5708 54.5847 15.6757 54.6303 15.2122C54.7326 14.2676 55.0986 13.3536 55.8687 12.7555C56.6787 12.1331 57.6989 12.037 58.6631 11.8931C59.3511 11.797 60.3812 11.7439 60.872 11.1791C61.3106 10.7168 61.1106 10.0373 60.73 9.62548Z" fill="#4C7378"/>
<path d="M55.9354 2.56014C55.0718 2.68111 54.593 4.02858 54.3536 4.70232C54.0151 5.67049 53.7933 6.6876 53.7106 7.71838C53.6032 8.90583 53.5996 10.0848 53.5529 11.2735C53.4983 12.4942 53.3191 13.698 53.2326 14.9109C53.1576 15.2452 53.0937 15.5618 53.0474 15.8895C53.0012 16.2172 53.4817 16.4704 53.6285 16.1198C54.1876 14.8598 54.4778 13.4797 54.8417 12.1584C55.2324 10.7554 55.6264 9.36684 56.0027 7.96717C56.2147 7.23926 58.1 2.2489 55.9354 2.56014Z" fill="#57848A"/>
<path d="M57.3901 19.5082C58.0019 17.6169 56.3885 15.7033 54.6107 14.7937C53.7378 14.3429 52.7441 14.0252 51.7669 14.1116C49.7551 14.2975 48.2548 16.1341 47.6671 18.0652C47.0794 19.9963 47.1569 22.063 46.9465 24.0593C46.495 27.9834 44.8842 31.6577 43.7355 35.4382C42.6012 39.2156 41.9657 43.3929 43.4889 47.0338C43.6796 47.4737 44.0545 47.9926 44.5218 47.8561C44.7418 47.7607 44.9311 47.5968 45.0466 47.3742C45.6698 46.4621 46.2897 45.5356 46.9097 44.6092C50.0262 39.8522 52.6701 34.8101 54.8257 29.5468C56.3073 25.9019 57.3901 19.5082 57.3901 19.5082Z" fill="#FC9658"/>
<path d="M44.3917 47.4175C45.2916 45.9289 45.7958 44.2283 45.8365 42.4821C45.8772 40.7358 45.4565 39.0191 44.6101 37.4898C43.9635 36.3077 43.0683 35.2276 42.5334 34.005C41.9841 32.7857 41.8297 31.3105 42.6421 30.2345C43.4546 29.1585 45.4324 28.8897 46.3068 29.9444C46.916 30.697 46.9575 31.9411 47.938 32.2014C48.5635 32.3612 49.2083 31.9426 49.466 31.4157C49.7237 30.8889 49.687 30.2628 49.6458 29.6832L49.2207 23.6325C49.1722 22.8884 49.1205 22.1298 49.4029 21.4463C49.6854 20.7628 50.3629 20.1555 51.1698 20.1834C53.4193 20.2455 53.2426 24.1825 55.4668 24.5978C57.0114 24.8808 57.9693 23.1827 58.2992 21.7784C58.7277 19.944 59.0373 17.9855 60.3785 16.5778C61.7053 15.1733 64.5291 14.7725 65.7 16.3337C66.496 17.376 66.2377 18.7639 65.8588 19.9527C65.4295 21.3191 64.8979 22.6333 64.2526 23.9129C63.6151 25.1605 63.0169 26.9128 64.2463 27.7357C64.9755 28.2192 66.0324 28.0845 66.7871 28.5471C67.2135 28.8277 67.5191 29.2415 67.6909 29.7311C68.5558 32.0718 66.3428 34.8258 63.6683 34.7546C62.0722 34.71 60.3362 33.8513 58.9453 34.5756C57.5798 35.279 57.53 37.1179 58.1661 38.4533C58.8023 39.7888 59.9436 40.8885 60.5654 42.2272C61.1872 43.5659 61.0479 45.4101 59.655 46.0593C57.8111 46.9169 55.1949 45.1106 53.5762 46.2945C53.0861 46.6627 52.8349 47.2183 52.6125 47.7674C51.9685 49.3186 51.3598 50.8919 50.7975 52.4698L44.3917 47.4175Z" fill="#689399"/>
<path d="M26.36 20.8741C24.5745 20.3288 22.7537 19.7613 21.1815 18.7596C19.6094 17.7579 18.2663 16.236 17.8944 14.4024C17.5225 12.5688 18.3249 10.4529 20.0207 9.67435C22.1133 8.7149 24.6249 10.0617 25.9714 11.9303C27.3179 13.7989 27.8439 16.111 28.7747 18.2101C29.0816 18.8955 29.5694 19.6454 30.3078 19.704C31.1068 19.7638 31.7052 19.0084 32.0386 18.2831C33.0232 16.1711 33.116 13.6578 34.4883 11.7899C34.996 11.1004 35.7916 10.4813 36.6423 10.6352C37.0437 10.7402 37.4218 10.9412 37.7124 11.2224C38.5644 11.9801 39.1796 12.9579 39.4886 14.0506C39.812 15.14 39.8194 16.3013 39.5246 17.3955C39.0961 18.8977 38.0788 20.2015 37.6998 21.7226C37.6105 22.0601 37.5806 22.4596 37.7817 22.7462C37.9828 23.0327 38.381 23.1233 38.7342 23.1487C39.872 23.2372 41.0209 22.9758 42.162 23.0787C43.2887 23.1848 44.522 23.8256 44.7449 24.9379C44.9677 26.0502 44.0769 27.1138 43.0894 27.6859C42.1018 28.258 40.9562 28.5337 40.0203 29.1998C39.0843 29.8658 38.4182 31.12 38.9361 32.135C39.52 33.2407 41.1082 33.3173 42.2786 32.8849C43.4457 32.4381 44.4991 31.6245 45.7282 31.4505C46.4306 31.3511 47.1356 31.4626 47.7793 31.7693C48.4087 32.0792 48.9448 32.5765 49.2929 33.177C49.6442 33.7918 49.8043 34.4955 49.7536 35.2018C49.7028 35.9082 49.4457 36.5708 49.0013 37.1402C48.3552 37.9517 47.3945 38.4422 46.4526 38.883C41.5552 41.1905 36.4235 42.9321 31.1289 44.0914C30.3965 44.2581 29.6432 44.3992 28.8951 44.2976C26.7722 43.9952 25.5503 41.8112 24.6268 39.8766C24.1892 38.9491 23.7411 37.8427 24.2142 36.9346C24.8438 35.7189 26.5339 35.712 27.8237 35.2071C28.3498 34.9967 28.8354 34.6748 29.2264 34.2686C29.6316 33.8592 29.9455 33.3801 30.1392 32.8375C30.3917 32.2212 30.417 31.5358 30.2269 30.8994C29.8297 29.7512 28.5534 29.1202 27.3451 28.9874C26.1334 28.8401 24.9075 29.0284 23.6881 28.9132C22.2193 28.764 20.7223 28.0927 19.9667 26.8297C19.1967 25.57 19.3647 23.7193 20.5585 22.8586C22.2855 21.6199 24.9119 22.9405 26.7388 21.8754C27.2244 21.2211 26.36 20.8741 26.36 20.8741Z" fill="#66A896"/>
<path d="M29.2438 42.5114C17.5929 43.0175 5.35909 32.4642 5.35909 32.4642L4.16907 32.4781C4.16907 32.4781 8.77147 44.5413 26.0414 46.0947C46.8019 47.9868 50.8203 33.2523 50.8203 33.2523L51.4465 31.0255C50.466 33.9522 46.2162 41.7613 29.2438 42.5114Z" fill="#E69E19"/>
<path d="M53.4431 24.6656C53.4639 24.3587 53.3666 24.0637 53.1897 23.817C52.9983 23.5735 52.7482 23.4039 52.446 23.3367C51.6737 23.1952 51.3795 24.0929 51.3228 24.2418C51.0912 24.8835 50.2592 29.0603 49.5596 29.7028C46.8883 32.1683 41.4658 36.151 28.3525 35.8721C21.4172 35.7282 6.15441 30.516 6.15441 30.516L5.35909 32.4642C5.35909 32.4642 17.5786 43.0208 29.2295 42.5147C49.4168 41.6221 51.6174 30.7147 51.7289 30.0097C51.7511 29.9744 53.4314 24.8797 53.4431 24.6656Z" fill="#FDB62F"/>
<path d="M4.18684 32.4892C4.18684 32.4892 5.31159 32.5203 5.37686 32.4752C5.44213 32.4302 6.15781 30.5304 6.15781 30.5304C6.15781 30.5304 5.22357 30.2747 4.87573 30.671C4.40259 31.2469 4.18684 32.4892 4.18684 32.4892Z" fill="#6B4D3A"/>
<path d="M34.4971 29.3538C32.1806 27.7361 28.2063 27.4622 26.1112 28.8754C24.0161 30.2885 24.7556 29.9541 24.0161 30.2885C23.2622 30.6262 21.7712 30.5123 20.5619 31.7692C19.1809 33.2011 16.7861 36.948 18.9856 41.0392C20.8659 44.5234 25.6389 47.0472 30.7153 45.3938C35.7917 43.7404 37.9196 40.2807 38.1775 37.5637C38.492 34.3656 36.7398 30.9128 34.4971 29.3538Z" fill="#FF5856"/>
<path d="M26.3001 32.4272C26.3001 32.4272 25.7243 27.2415 22.2846 26.5288C18.8449 25.8162 13.3534 24.9813 13.6296 25.2658C13.9169 25.5327 15.9954 30.9504 18.4247 32.1346C22.1062 33.91 26.3001 32.4272 26.3001 32.4272Z" fill="#1F6771"/>
<path d="M27.2359 31.7611C27.2359 31.7611 26.3945 29.3244 26.0723 27.842C25.426 24.8021 25.2762 23.2805 25.2762 23.2805L22.7259 24.0873C22.7259 24.0873 23.6158 27.6004 24.1031 28.8791C24.9803 31.1415 25.9611 32.3985 25.9611 32.3985C25.9611 32.3985 26.5155 32.7104 26.9149 32.4081C27.02 32.3389 27.1041 32.2442 27.1707 32.1384C27.2163 32.0072 27.2476 31.8793 27.2359 31.7611Z" fill="#6B4D3A"/>
<path d="M24.219 24.2763C24.9174 24.0267 25.3847 23.5579 25.2599 23.2087C25.1351 22.8595 24.4719 22.7989 23.7735 23.0485C23.075 23.298 22.6077 23.7668 22.7325 24.116C22.8684 24.4476 23.5205 24.5258 24.219 24.2763Z" fill="#8A634B"/>
<path d="M66.3225 59.6312L24.2603 69.2013C23.6428 69.3418 22.9984 69.2316 22.452 68.8877C21.9088 68.5582 21.5273 68.0106 21.3869 67.3931L9.86913 45.8472C9.72863 45.2297 9.83877 44.5854 10.1827 44.0389C10.5298 43.5068 11.0598 43.1144 11.6773 42.9739L66.3195 30.5415C66.937 30.401 67.5957 30.5079 68.1278 30.8551C68.6566 31.1879 69.0524 31.7322 69.1929 32.3497L68.1307 56.7578C68.2712 57.3753 68.161 58.0196 67.8171 58.5661C67.4732 59.1126 66.94 59.4907 66.3225 59.6312Z" fill="#DEC7B2"/>
<path d="M68.3882 44.1478C68.0691 44.5376 67.6409 44.8464 67.1481 45.0039C66.0143 45.3978 65.0729 44.9776 64.029 44.5052C62.9354 44.0139 61.757 43.4815 60.5265 43.7162C59.2641 43.943 58.3217 44.9126 57.2271 45.4789C56.7794 45.7016 56.2134 45.9361 55.697 45.8572C55.4907 45.8135 55.289 45.7235 55.1095 45.5982C55.2296 45.6615 54.9292 45.3371 54.894 45.3149C54.8587 45.2927 54.8522 45.264 54.8424 45.2209C54.7633 45.0728 54.766 45.2836 54.687 45.1355C54.3304 44.4312 53.9164 43.74 53.4801 43.084C52.9976 42.4235 52.4314 41.6612 51.5951 41.5041C50.8052 41.3515 50.1624 41.8452 49.6925 42.4354C48.8304 43.4925 48.095 44.6415 47.4653 45.8572C46.9368 46.8535 46.163 48.6305 45.0051 48.9846C44.7642 49.0545 44.5136 49.0814 44.2753 49.0299C44.0259 48.996 43.7889 48.8837 43.6061 48.7441C43.6061 48.7441 43.5082 48.6456 43.4246 48.5437L43.3449 48.2598C43.1822 47.6776 43.0051 47.0985 42.817 46.5372C42.4264 45.4177 41.9365 44.2605 41.2097 43.3232C40.2498 42.0917 38.8788 41.7088 37.6303 42.7934C36.5965 43.6932 36.1784 45.3742 35.7518 46.6192C35.2684 48.013 34.8491 49.4225 34.2632 50.7641C33.8052 51.8048 33.1312 53.4232 31.904 53.6722C30.6338 53.931 29.0759 52.9261 28.0013 52.3852C25.2978 50.9915 22.7337 48.4181 19.4692 48.8739C16.939 49.2381 15.1201 50.9358 13.6845 52.9239L16.4405 58.0665C17.6648 56.9421 19.0485 56.0534 20.747 55.818C23.753 55.421 26.2845 58.183 28.6591 59.5912C29.8976 60.3214 31.2935 61.2121 32.7323 61.4285C34.3741 61.6742 35.5248 60.8233 36.3613 59.4549C37.1326 58.1315 37.7662 56.7337 38.2365 55.2824C38.701 53.9382 39.0466 52.47 39.6775 51.1937C39.8941 50.7517 40.1813 50.3541 40.6564 50.1855C40.6708 50.1823 40.7857 50.1561 40.8895 50.1476C41.028 50.69 41.1522 51.2358 41.3272 51.7397C41.6794 52.8226 42.1718 53.8584 42.8268 54.812C43.6731 56.009 44.8928 57.1211 46.436 57.1324C47.9041 57.1458 48.9032 55.6951 49.5844 54.5734C50.3433 53.3284 50.9005 51.9933 51.645 50.7515C51.9569 50.1972 52.3393 49.6873 52.8164 49.2615C52.8673 49.2197 52.9359 49.189 52.9933 49.176C53.0175 49.2158 53.0416 49.2556 53.0658 49.2954C54.163 51.4624 55.959 55.0412 58.9838 53.9301C60.2801 53.4539 61.2969 52.3466 62.684 52.1367C63.985 51.9464 65.1896 52.926 66.3374 53.3898C66.9569 53.6567 67.6189 53.7779 68.2801 53.7634L68.7151 43.726C68.6309 43.8207 68.4724 44.0531 68.3882 44.1478ZM53.0658 49.2954C53.1931 49.5232 53.2676 49.7177 53.0658 49.2954V49.2954Z" fill="#EBDBCD"/>
</svg>
