<svg width="18" height="16" viewBox="0 0 18 16" fill="none" xmlns="http://www.w3.org/2000/svg">
<path d="M15.6454 2.15644C15.2614 1.76005 14.8055 1.44561 14.3037 1.23107C13.802 1.01653 13.2642 0.906113 12.721 0.906113C12.1779 0.906113 11.64 1.01653 11.1383 1.23107C10.6365 1.44561 10.1806 1.76005 9.79663 2.15644L8.99976 2.97871L8.20289 2.15644C7.42729 1.35614 6.37537 0.906527 5.27851 0.906528C4.18166 0.906528 3.12973 1.35614 2.35414 2.15644C1.57855 2.95675 1.14282 4.0422 1.14282 5.17401C1.14282 6.30582 1.57855 7.39127 2.35414 8.19158L3.15101 9.01384L8.99976 15.049L14.8485 9.01384L15.6454 8.19158C16.0295 7.79537 16.3343 7.32495 16.5422 6.80718C16.7501 6.28942 16.8571 5.73446 16.8571 5.17401C16.8571 4.61356 16.7501 4.0586 16.5422 3.54084C16.3343 3.02307 16.0295 2.55265 15.6454 2.15644V2.15644Z" stroke="#FC153B" stroke-linecap="round" stroke-linejoin="round"/>
</svg>
