<svg width="195" height="97" viewBox="0 0 195 97" fill="none" xmlns="http://www.w3.org/2000/svg">
<g clip-path="url(#clip0)">
<path d="M37.2777 34.6901C37.2777 36.6235 35.7591 38.1451 33.8213 38.1451H27.7395V62.5326C27.7395 64.466 26.2208 65.9876 24.2831 65.9876C22.4188 65.9876 20.8965 64.466 20.8965 62.5326V38.1451H17.0981C15.2339 38.1451 13.7116 36.6235 13.7116 34.6901C13.7116 32.8266 15.2302 31.3049 17.0981 31.3049H20.9002C20.8303 26.4017 22.6284 21.9101 25.9451 18.5947C27.8093 16.7312 29.953 15.3492 32.4424 14.5185C34.1706 13.8275 36.1746 14.7942 36.796 16.5916C37.4174 18.3191 36.5202 20.3223 34.7221 20.9434C33.2697 21.4286 31.957 22.2556 30.784 23.4318C28.7102 25.5048 27.7431 28.199 27.7431 31.3086H33.8249C35.7554 31.3049 37.2777 32.8229 37.2777 34.6901Z" fill="white"/>
<path d="M71.7608 48.6426C71.7608 50.5061 70.2422 52.0278 68.3044 52.0278H44.4626C45.915 56.1739 49.7832 59.1437 54.4163 59.1437C56.0048 59.1437 58.8397 59.004 62.1564 56.8649C63.7449 55.8283 65.8886 56.795 66.7159 58.4527C67.5469 60.1802 66.6461 61.9776 65.0576 63.0104C60.4981 66.0501 56.9718 65.9803 54.4163 65.9803C44.8082 65.9803 37.0681 58.1734 37.0681 48.6389C37.0681 39.0346 44.8082 31.2975 54.4163 31.2975C62.7742 31.3049 71.7608 37.3843 71.7608 48.6426ZM44.4626 45.1875H64.4362C62.9838 40.3505 58.5603 38.1415 54.4163 38.1415C49.7832 38.1415 45.9113 41.1113 44.4626 45.1875Z" fill="white"/>
<path d="M110.598 48.6426C110.598 50.5061 109.079 52.0278 107.141 52.0278H83.2993C84.7517 56.1739 88.62 59.1437 93.253 59.1437C94.8415 59.1437 97.6765 59.004 100.993 56.8649C102.582 55.8283 104.725 56.795 105.553 58.4527C106.384 60.1802 105.483 61.9776 103.894 63.0104C99.3348 66.0501 95.8086 65.9803 93.253 65.9803C83.645 65.9803 75.9048 58.1734 75.9048 48.6389C75.9048 39.0346 83.645 31.2975 93.253 31.2975C101.611 31.3049 110.598 37.3843 110.598 48.6426ZM83.2993 45.1875H103.273C101.82 40.3505 97.397 38.1415 93.253 38.1415C88.62 38.1415 84.7481 41.1113 83.2993 45.1875Z" fill="white"/>
<path d="M181.292 34.9658V69.0237C181.292 76.8306 174.865 83.2555 166.985 83.2555C161.524 83.2555 156.619 80.146 154.2 75.2427C153.369 73.5851 154.06 71.512 155.788 70.685C157.447 69.8543 159.52 70.6152 160.282 72.2729C161.594 74.8274 164.153 76.4189 166.985 76.4189C171.132 76.4189 174.449 73.1036 174.449 69.0273V64.0543C172.375 65.2966 169.956 65.9876 167.33 65.9876C159.73 65.9876 153.508 59.8384 153.439 52.241C153.439 52.1711 153.439 52.1711 153.439 52.1711V34.9694C153.439 33.1059 154.961 31.5842 156.825 31.5842C158.689 31.5842 160.212 33.1059 160.212 34.9694V52.1013C160.212 56.0379 163.458 59.2172 167.33 59.2172C171.268 59.2172 174.449 56.0415 174.449 52.1013V34.9658C174.449 33.1023 175.971 31.5806 177.836 31.5806C179.773 31.5806 181.292 33.0986 181.292 34.9658Z" fill="white"/>
<path d="M141.981 49.8555C141.437 53.1782 139.334 55.9754 136.447 57.4713C136.23 60.7316 134.59 63.6022 132.138 65.462C132.141 65.4657 132.145 65.4694 132.149 65.4731C140.275 65.2231 147.048 59.3165 148.618 51.5757C146.254 51.8146 143.819 51.142 141.981 49.8555Z" fill="#F7941D"/>
<path d="M125.254 39.7881C128.74 36.9947 134.303 36.9506 137.841 39.6779C138.286 37.4211 139.492 35.4362 141.179 33.9991C141.183 33.8888 141.187 33.7786 141.187 33.6646C134.664 29.1657 124.96 30.1361 119.492 35.7266C119.5 35.767 119.507 35.8075 119.518 35.8442C121.835 36.5095 123.839 37.9136 125.254 39.7881Z" fill="#F7941D"/>
<path d="M128.549 58.1807C126.549 57.5669 124.802 56.3687 123.504 54.7918C121.702 56.2915 119.408 57.2251 116.9 57.3133C120.025 62.3378 125.765 65.6862 132.123 65.4694C132.127 65.4657 132.13 65.462 132.138 65.4583C134.59 63.5985 136.23 60.7279 136.447 57.4676C134.149 58.699 131.082 58.9967 128.549 58.1807Z" fill="#39B54A"/>
<path d="M123.147 41.931C123.743 41.1187 124.453 40.3983 125.254 39.7881C123.839 37.9136 121.835 36.5095 119.518 35.8479C119.481 35.8369 119.441 35.8259 119.404 35.8148C114.959 40.0234 113.043 47.3598 115.087 53.3951C115.528 54.7845 116.143 56.0967 116.904 57.3133C119.411 57.2214 121.706 56.2915 123.508 54.7918C122.011 52.9724 121.114 50.6495 121.114 48.1427C121.114 47.6392 121.151 47.1466 121.22 46.6615C121.467 44.9082 122.143 43.2946 123.147 41.931Z" fill="#F9ED32"/>
<path d="M148.964 34.3152C146.809 35.9545 143.305 35.7119 141.4 33.8153C141.326 33.8741 141.249 33.9366 141.179 33.9991C139.492 35.4326 138.286 37.4174 137.841 39.6779C138.164 39.9168 138.477 40.1741 138.771 40.4461C140.507 42.0523 141.694 44.2356 142.025 46.6762C142.169 47.7127 142.154 48.8264 141.981 49.8519C143.82 51.142 146.257 51.8146 148.618 51.572C148.633 51.5022 148.644 51.4324 148.655 51.3662C149.239 49.216 148.864 36.7484 148.964 34.3152Z" fill="#39B54A"/>
<path d="M141.406 33.8144C141.396 33.8074 141.388 33.8003 141.378 33.7933C141.385 33.8003 141.396 33.8074 141.403 33.8144C141.403 33.8144 141.403 33.8144 141.406 33.8144Z" fill="#F9ED32"/>
<path d="M142.121 25.9422V33.2897C142.878 32.7751 143.739 32.3708 144.651 32.0841C143.739 32.3671 142.878 32.7751 142.121 33.2897V34.3262C141.889 34.1498 141.646 33.9807 141.404 33.8116L141.4 33.8153C142.474 34.8077 143.908 35.4215 145.489 35.4215C146.783 35.4215 147.982 35.0099 148.964 34.3152V31.7055C147.978 31.5659 146.963 31.5953 145.982 31.7643C146.963 31.5953 147.978 31.5695 148.964 31.7055V25.3358C147.11 26.7509 144.224 27.0265 142.121 25.9422Z" fill="#F9ED32"/>
<path d="M143.095 14.7538C142.492 15.3639 142.121 16.2019 142.121 17.1245V24.4058C142.941 23.8177 143.959 23.4869 145.003 23.4098C143.959 23.4869 142.941 23.8141 142.121 24.4058V25.9422C144.224 27.0265 147.11 26.7509 148.964 25.3358V24.483V19.6974C145.952 20.1495 143.169 17.7751 143.095 14.7538ZM145.599 23.3914C145.584 23.3914 145.57 23.3877 145.555 23.3877C145.57 23.3914 145.584 23.3914 145.599 23.3914ZM146.838 23.5384C147.055 23.5862 147.269 23.645 147.478 23.7148C147.272 23.645 147.059 23.5862 146.838 23.5384Z" fill="#F7941D"/>
<path d="M148.258 19.7526C148.497 19.7526 148.732 19.7305 148.964 19.6974V17.1245C149 14.1363 145.173 12.5925 143.095 14.7538C143.187 17.5288 145.459 19.7526 148.258 19.7526Z" fill="#39B54A"/>
<path d="M132.252 45.5882V47.867H134.502C134.939 47.867 135.296 48.2236 135.296 48.6757C135.296 49.1131 134.939 49.4696 134.502 49.4696H132.252V51.7007C132.252 52.1381 131.895 52.4946 131.443 52.4946C131.005 52.4946 130.648 52.1381 130.648 51.7007V49.4696H128.383C127.931 49.4696 127.574 49.1131 127.574 48.6757C127.574 48.2236 127.931 47.867 128.383 47.867H130.648V45.5882C130.648 45.1361 131.005 44.7796 131.443 44.7796C131.895 44.7796 132.252 45.1361 132.252 45.5882Z" fill="white"/>
</g>
<defs>
<clipPath id="clip0">
<rect width="195" height="96.9948" fill="white"/>
</clipPath>
</defs>
</svg>
