<svg width="16" height="20" viewBox="0 0 16 20" fill="none" xmlns="http://www.w3.org/2000/svg">
<path d="M15.0714 8.42857C15.0714 13.9286 8.00002 18.6429 8.00002 18.6429C8.00002 18.6429 0.928589 13.9286 0.928589 8.42857C0.928589 6.55311 1.67361 4.75446 2.99976 3.42831C4.32591 2.10216 6.12456 1.35714 8.00002 1.35714C9.87548 1.35714 11.6741 2.10216 13.0003 3.42831C14.3264 4.75446 15.0714 6.55311 15.0714 8.42857Z" stroke="#FC153B" stroke-linecap="round" stroke-linejoin="round"/>
<path d="M8.00002 10.7857C9.30183 10.7857 10.3572 9.73038 10.3572 8.42857C10.3572 7.12675 9.30183 6.07142 8.00002 6.07142C6.6982 6.07142 5.64287 7.12675 5.64287 8.42857C5.64287 9.73038 6.6982 10.7857 8.00002 10.7857Z" stroke="#FC153B" stroke-linecap="round" stroke-linejoin="round"/>
</svg>
