<svg width="18" height="18" viewBox="0 0 18 18" fill="none" xmlns="http://www.w3.org/2000/svg">
<path d="M12.1428 5.85668V9.78525C12.1428 10.4104 12.3912 11.01 12.8332 11.452C13.2753 11.8941 13.8748 12.1424 14.5 12.1424C15.1251 12.1424 15.7247 11.8941 16.1667 11.452C16.6088 11.01 16.8571 10.4104 16.8571 9.78525V8.99954C16.857 7.2262 16.257 5.50506 15.1547 4.11596C14.0524 2.72686 12.5125 1.7515 10.7856 1.34849C9.05869 0.945472 7.24621 1.1385 5.64289 1.89618C4.03957 2.65387 2.73971 3.93165 1.95467 5.52175C1.16964 7.11185 0.945589 8.92076 1.31896 10.6543C1.69233 12.3879 2.64117 13.9442 4.01118 15.0702C5.38119 16.1961 7.09181 16.8255 8.86488 16.856C10.638 16.8865 12.3692 16.3163 13.7771 15.2381M12.1428 8.99954C12.1428 10.7353 10.7357 12.1424 8.99997 12.1424C7.26422 12.1424 5.85712 10.7353 5.85712 8.99954C5.85712 7.26379 7.26422 5.85668 8.99997 5.85668C10.7357 5.85668 12.1428 7.26379 12.1428 8.99954Z" stroke="#FC153B" stroke-linecap="round" stroke-linejoin="round"/>
</svg>
