<svg width="14" height="18" viewBox="0 0 14 18" fill="none" xmlns="http://www.w3.org/2000/svg">
<path d="M13.3386 6.82798C12.7218 6.21112 11.7181 6.21112 11.1013 6.82798L9.69003 8.23922V2.63672C9.69003 1.76439 8.98033 1.05469 8.108 1.05469C7.90209 1.05469 7.70549 1.09462 7.5249 1.16652C7.34194 0.495176 6.7272 0 5.99866 0C5.27011 0 4.65537 0.495176 4.47238 1.16652C4.29179 1.09462 4.09519 1.05469 3.88928 1.05469C3.16074 1.05469 2.546 1.54986 2.36301 2.22121C2.18241 2.14931 1.98582 2.10938 1.77991 2.10938C0.907575 2.10938 0.197876 2.81907 0.197876 3.69141V18H9.69006V12.7139L13.3386 9.06532C13.6374 8.76649 13.802 8.36923 13.802 7.94665C13.802 7.52407 13.6374 7.12677 13.3386 6.82798ZM12.5928 8.31955L8.63538 12.277V16.9453H1.25256V3.69141C1.25256 3.40063 1.48913 3.16406 1.77991 3.16406C2.07068 3.16406 2.30725 3.40063 2.30725 3.69141V7.10156H3.36194V2.63672C3.36194 2.34594 3.59851 2.10938 3.88928 2.10938C4.18006 2.10938 4.41663 2.34594 4.41663 2.63672V7.10156H5.47131V1.58203C5.47131 1.29125 5.70788 1.05469 5.99866 1.05469C6.28944 1.05469 6.526 1.29125 6.526 1.58203V7.10156H7.58069V2.63672C7.58069 2.34594 7.81726 2.10938 8.10803 2.10938C8.39881 2.10938 8.63538 2.34594 8.63538 2.63672V9H7.75647C5.91488 9 4.41663 10.4983 4.41663 12.3398H5.47131C5.47131 11.0798 6.49644 10.0547 7.75647 10.0547H9.36613L11.8471 7.57375C12.0527 7.36815 12.3873 7.36815 12.5928 7.57375C12.6924 7.67334 12.7473 7.80578 12.7473 7.94665C12.7473 8.08752 12.6924 8.21995 12.5928 8.31955Z" fill="#FC153B"/>
</svg>
