<svg width="22" height="18" viewBox="0 0 22 18" fill="none" xmlns="http://www.w3.org/2000/svg">
<path d="M20.8245 10.4106H20.6493C20.9566 10.2107 21.2224 9.96509 21.3864 9.66448C21.5729 9.32254 21.6091 8.95129 21.4939 8.56113C21.3878 8.20187 21.1833 7.92674 20.8856 7.74064C21.0302 7.37416 21.1059 6.97997 21.1059 6.58375C21.1059 4.84949 19.695 3.43857 17.9608 3.43857C17.1212 3.43857 16.3263 3.7717 15.7383 4.35973L14.2494 2.22547C14.1973 2.15066 14.1158 2.10147 14.0253 2.09012C13.9349 2.07874 13.8438 2.10619 13.7747 2.16579C13.37 2.5147 13.042 2.93918 12.8055 3.4112C12.474 3.44347 12.1635 3.58767 11.92 3.73952C11.8647 3.22385 11.7334 2.48204 11.4214 1.88202C11.3393 1.72411 11.1448 1.66271 10.9868 1.74478C10.8289 1.8269 10.7675 2.02146 10.8496 2.17941C11.3019 3.04918 11.3155 4.35286 11.3156 4.36575C11.3162 4.4959 11.3952 4.6129 11.5156 4.66223C11.5552 4.67843 11.5966 4.68629 11.6377 4.68629C11.7219 4.68629 11.8045 4.65334 11.8662 4.59138C11.8702 4.58738 12.1635 4.2997 12.5239 4.14489C12.4818 4.29708 12.4476 4.45199 12.4234 4.60947C12.3042 5.38514 12.4142 6.17516 12.7334 6.88281L9.84169 8.17699C9.18448 7.03883 8.50257 6.50151 7.81292 6.5789C7.61776 6.60085 7.46118 6.64984 7.33485 6.71317C6.8157 5.88572 6.61298 5.24102 6.7919 4.97045C6.8591 4.86882 7.0638 4.55954 7.68204 4.69901C8.04882 4.78173 8.35979 4.9765 8.36228 4.97809C8.47202 5.04813 8.61309 5.04521 8.71991 4.97079C8.82668 4.89637 8.8782 4.76497 8.85049 4.63778C8.80675 4.43716 8.75295 4.09178 8.73138 3.70149C8.73129 3.6923 8.73086 3.6831 8.73 3.67395C8.69786 3.04437 8.75145 2.30492 9.06671 1.86621C9.23123 1.63727 9.4545 1.51017 9.74922 1.47765C9.84002 1.46763 9.92724 1.46785 10.0085 1.47833C10.1851 1.50136 10.3465 1.37637 10.3693 1.19981C10.392 1.02329 10.2673 0.861774 10.0908 0.839044C9.95887 0.822028 9.82016 0.821341 9.67858 0.836981C9.19862 0.889919 8.81667 1.10966 8.54335 1.49002C8.27625 1.86166 8.12354 2.37771 8.08633 3.02748C7.58446 2.70367 7.0003 2.52948 6.38718 2.52948C4.65291 2.52948 3.24199 3.9404 3.24199 5.67466C3.24199 6.28507 3.41679 6.87456 3.74718 7.38383C3.72569 7.55875 3.73106 7.7372 3.75341 7.90641C3.12632 7.72625 2.12622 7.53654 1.41608 7.87608C1.03456 8.05852 0.778594 8.36283 0.655273 8.78057C0.443438 9.49832 0.763168 10.0319 1.20914 10.4105H1.1755C0.527313 10.4106 0 10.9379 0 11.5861V11.6554C0 12.3035 0.527313 12.8308 1.17545 12.8308H2.24121L4.82561 15.3496C4.63835 15.5471 4.52311 15.8136 4.52311 16.1066V16.1158C4.52311 16.7093 5.00693 17.1743 5.62457 17.1743H16.3755C16.9931 17.1743 17.4769 16.7093 17.4769 16.1158V16.1066C17.4769 15.8136 17.3617 15.5471 17.1744 15.3496L19.7588 12.8308H20.8246C21.4727 12.8308 22 12.3035 22 11.6554V11.5861C22 10.9379 21.4727 10.4106 20.8245 10.4106ZM20.8205 9.35588C20.6043 9.75235 19.9891 10.1237 19.1327 10.3747C19.104 10.3831 19.0775 10.3955 19.0532 10.4106H13.0622C13.6811 9.48363 13.8881 8.35475 13.6363 7.26949C13.8642 7.06938 14.0749 6.97855 14.2641 6.99986C14.5805 7.03548 14.6467 7.16039 14.6685 7.20143C14.8047 7.45838 14.6181 7.98032 14.5066 8.19224C14.4286 8.33924 14.4753 8.52147 14.6144 8.61278C14.7535 8.70413 14.9393 8.67448 15.0431 8.54446C15.5671 7.88798 16.3788 7.10182 16.9478 6.82889C16.972 6.82141 16.9956 6.8108 17.0181 6.79731C17.1805 6.7295 17.3196 6.70896 17.4216 6.75292C17.5811 6.82175 17.7908 6.96789 17.7702 7.44076C17.7561 7.76389 17.638 8.05809 17.6371 8.06033C17.5875 8.18068 17.6153 8.31904 17.7073 8.41104C17.7995 8.50308 17.9379 8.53062 18.0581 8.48091C18.4916 8.30186 19.767 7.90925 20.455 8.23818C20.6677 8.33988 20.8053 8.50523 20.8756 8.74366C20.9416 8.96675 20.9235 9.16699 20.8205 9.35588ZM10.9498 10.1796L10.6615 9.53545C10.5888 9.37302 10.3982 9.30023 10.2357 9.37294C10.0732 9.44564 10.0005 9.63625 10.0732 9.79872L10.347 10.4106H9.33191L9.45007 10.101C9.51354 9.93467 9.43018 9.7484 9.26389 9.68498C9.09764 9.62151 8.91133 9.70483 8.84791 9.87112L8.642 10.4106H7.14261C7.1375 10.4036 7.00992 10.2487 6.95591 10.1746L13.0182 7.46143C13.2322 8.4675 12.9736 9.54443 12.3087 10.3448C12.2916 10.3653 12.2779 10.3875 12.2668 10.4106H10.9618C10.9856 10.3373 10.9837 10.2555 10.9498 10.1796ZM16.8563 5.96221C17.0792 5.56573 17.4983 5.31591 17.9608 5.31591C18.6598 5.31591 19.2286 5.88465 19.2286 6.58371C19.2286 6.96849 19.0567 7.3281 18.757 7.57031C18.745 7.58007 18.7341 7.59068 18.7238 7.60172C18.6067 7.62892 18.4964 7.65806 18.3957 7.68697C18.4701 7.12271 18.3587 6.4551 17.6768 6.16102C17.4692 6.07152 17.2364 6.06228 16.976 6.13383L16.8563 5.96221ZM17.9608 4.08306C19.3396 4.08306 20.4614 5.20484 20.4614 6.58371C20.4614 6.90756 20.4006 7.21904 20.2822 7.51325C20.0797 7.47492 19.8671 7.46371 19.6549 7.47097C19.7964 7.20104 19.873 6.89811 19.873 6.58371C19.873 5.52925 19.0152 4.67138 17.9607 4.67138C17.3659 4.67138 16.8183 4.94492 16.4613 5.39614L16.1141 4.89839C16.5881 4.3792 17.2547 4.08306 17.9608 4.08306ZM13.9362 2.90296L16.3812 6.40766C16.1412 6.55668 15.8826 6.75756 15.604 7.01125C15.5157 7.09164 15.4302 7.17307 15.3486 7.25333C15.3322 7.13216 15.2978 7.01288 15.2389 6.90133C15.1263 6.68778 14.8782 6.42038 14.3362 6.35937C14.0058 6.32224 13.6746 6.42799 13.3477 6.67399C13.0594 6.06512 12.9571 5.38002 13.0604 4.70735C13.1648 4.02801 13.4719 3.39904 13.9362 2.90296ZM6.87668 7.19266C6.83818 7.28302 6.81347 7.37725 6.80049 7.47286C6.71894 7.39255 6.63343 7.31117 6.54509 7.23073C6.09967 6.82515 5.7053 6.55427 5.35674 6.41544C5.35343 6.41011 5.35038 6.40466 5.34673 6.39946C5.19797 6.18638 5.11934 5.93574 5.11934 5.6747C5.11934 4.97565 5.68807 4.40691 6.38713 4.40691C6.39809 4.40691 6.40892 4.40781 6.41983 4.40811C6.36127 4.46874 6.30575 4.53706 6.25427 4.61492C5.89553 5.15736 6.09937 6.00101 6.87668 7.19266ZM3.88648 5.6747C3.88648 4.29584 5.00827 3.17405 6.38713 3.17405C7.02878 3.17405 7.63099 3.41304 8.09579 3.84913C8.10369 3.95737 8.11332 4.06033 8.12397 4.15477C7.88232 4.07115 7.61338 4.01516 7.34748 4.02109C7.05641 3.85171 6.72672 3.76238 6.38709 3.76238C5.33264 3.76238 4.47477 4.62025 4.47477 5.6747C4.47477 5.90398 4.51533 6.1279 4.59336 6.33857C4.55211 6.34979 4.51163 6.36354 4.47223 6.38055C4.312 6.44965 4.18361 6.53958 4.08139 6.64373C3.9533 6.33922 3.88648 6.01102 3.88648 5.6747ZM2.42593 10.3868C1.4969 9.99861 1.10911 9.51959 1.27338 8.96315C1.34368 8.72493 1.48109 8.55967 1.69344 8.45796C2.37871 8.12959 3.6566 8.52168 4.09088 8.70039C4.21094 8.74993 4.34882 8.72226 4.44095 8.6307C4.53307 8.53913 4.56105 8.40086 4.51215 8.2805C4.51099 8.27758 4.39282 7.98337 4.37877 7.66025C4.35819 7.18738 4.56788 7.04124 4.72747 6.9724C5.1871 6.77423 6.40402 7.88557 7.10596 8.76399C7.20968 8.89375 7.39492 8.92314 7.53393 8.83226C7.67297 8.74134 7.71998 8.55937 7.64268 8.41233C7.53096 8.19985 7.34435 7.67791 7.48052 7.42095C7.50226 7.37992 7.56847 7.25501 7.88489 7.21939C8.27234 7.17547 8.76279 7.61788 9.2498 8.44185L6.34915 9.74002C6.26587 9.77727 6.20232 9.84809 6.17422 9.93484C6.14612 10.0216 6.15609 10.1162 6.20164 10.1952C6.24392 10.2686 6.28946 10.3401 6.33634 10.4107H2.47139C2.45704 10.4017 2.44204 10.3935 2.42593 10.3868ZM16.8324 16.1158C16.8324 16.3875 16.6025 16.5297 16.3754 16.5297H5.62452C5.39743 16.5297 5.16759 16.3875 5.16759 16.1158V16.1066C5.16759 15.8547 5.3726 15.6497 5.62452 15.6497H16.3754C16.6274 15.6497 16.8324 15.8547 16.8324 16.1066V16.1158ZM21.3555 11.6554C21.3555 11.9481 21.1173 12.1863 20.8245 12.1863H6.16516C5.98718 12.1863 5.84289 12.3306 5.84289 12.5085C5.84289 12.6865 5.98718 12.8308 6.16516 12.8308H18.8354L16.6043 15.0052H16.3754H5.62452H5.39563L3.16465 12.8308H4.87609C5.05407 12.8308 5.19836 12.6865 5.19836 12.5085C5.19836 12.3306 5.05407 12.1863 4.87609 12.1863H1.17545C0.882707 12.1863 0.644531 11.9481 0.644531 11.6554V11.5861C0.644531 11.2933 0.882707 11.0552 1.17545 11.0552H20.8245C21.1173 11.0552 21.3555 11.2933 21.3555 11.5861V11.6554Z" fill="#FC153B"/>
</svg>
