<svg width="22" height="23" viewBox="0 0 22 23" fill="none" xmlns="http://www.w3.org/2000/svg">
<g clip-path="url(#clip0)">
<path d="M21.4228 17.1783L16.9699 14.2088C16.4048 13.8349 15.6473 13.9579 15.2296 14.4914L13.9325 16.1591C13.7658 16.3789 13.4628 16.4427 13.2216 16.3087L12.9749 16.1727C12.157 15.7269 11.1393 15.1718 9.08882 13.1207C7.03836 11.0695 6.48221 10.051 6.03639 9.23458L5.9011 8.98784C5.7653 8.74674 5.82785 8.44243 6.04773 8.27441L7.71433 6.97772C8.24758 6.55991 8.37075 5.80265 7.99737 5.2374L5.02781 0.78452C4.64514 0.208911 3.8774 0.0361158 3.28499 0.392231L1.42296 1.51076C0.8379 1.85471 0.408662 2.41176 0.225256 3.06518C-0.445258 5.50828 0.0591632 9.72469 6.27032 15.9366C11.2112 20.877 14.8894 22.2056 17.4176 22.2056C17.9994 22.2081 18.579 22.1324 19.1406 21.9806C19.7942 21.7974 20.3513 21.3681 20.6951 20.7829L21.8147 18.9219C22.1713 18.3294 21.9986 17.5612 21.4228 17.1783ZM21.183 18.5458L20.0659 20.4078C19.8191 20.8302 19.4184 21.1408 18.9477 21.2745C16.6924 21.8937 12.752 21.3808 6.78905 15.4178C0.826085 9.45489 0.313243 5.51489 0.93246 3.25915C1.06633 2.78794 1.37729 2.38672 1.80021 2.13951L3.66225 1.02245C3.91929 0.867781 4.25251 0.942751 4.41856 1.19253L6.03166 3.61437L7.38558 5.64503C7.54772 5.89021 7.49445 6.21883 7.26314 6.40026L5.59615 7.69695C5.08886 8.08486 4.94399 8.78674 5.25632 9.34379L5.38869 9.58429C5.85724 10.4436 6.43976 11.5127 8.56649 13.639C10.6932 15.7654 11.7619 16.3479 12.6208 16.8164L12.8617 16.9492C13.4187 17.2614 14.1206 17.1166 14.5085 16.6093L15.8052 14.9423C15.9867 14.7112 16.3152 14.6579 16.5605 14.8199L21.0129 17.7895C21.2629 17.9554 21.3379 18.2888 21.183 18.5458Z" fill="#FC153B"/>
<path d="M12.4661 3.87486C15.9066 3.87868 18.6946 6.66681 18.6985 10.1073C18.6985 10.3098 18.8626 10.4739 19.0651 10.4739C19.2676 10.4739 19.4317 10.3098 19.4317 10.1073C19.4274 6.26202 16.3113 3.14587 12.4661 3.14166C12.2636 3.14166 12.0995 3.30578 12.0995 3.50826C12.0995 3.71074 12.2636 3.87486 12.4661 3.87486Z" fill="#FC153B"/>
<path d="M12.4661 6.07452C14.6922 6.07714 16.4962 7.88113 16.4988 10.1073C16.4988 10.3098 16.663 10.4739 16.8654 10.4739C17.0679 10.4739 17.232 10.3098 17.232 10.1073C17.229 7.47634 15.097 5.34433 12.4661 5.34132C12.2636 5.34132 12.0995 5.50544 12.0995 5.70792C12.0995 5.9104 12.2636 6.07452 12.4661 6.07452Z" fill="#FC153B"/>
<path d="M12.4661 8.2742C13.4779 8.2754 14.2979 9.09538 14.2992 10.1073C14.2992 10.3098 14.4633 10.4739 14.6658 10.4739C14.8682 10.4739 15.0324 10.3098 15.0324 10.1073C15.0307 8.69063 13.8827 7.54259 12.4661 7.541C12.2636 7.541 12.0995 7.70512 12.0995 7.9076C12.0995 8.11008 12.2636 8.2742 12.4661 8.2742Z" fill="#FC153B"/>
</g>
<defs>
<clipPath id="clip0">
<rect width="22" height="22" fill="white" transform="translate(0 0.206299)"/>
</clipPath>
</defs>
</svg>
